<svg width="30" height="30" fill="none" xmlns="http://www.w3.org/2000/svg"><path fill-rule="evenodd" clip-rule="evenodd" d="M0 0h15c8.284 0 15 6.716 15 15 0 8.284-6.716 15-15 15H0V0z" fill="url(#paint0_linear)"/><mask id="a" maskUnits="userSpaceOnUse" x="0" y="0" width="30" height="30"><path fill-rule="evenodd" clip-rule="evenodd" d="M0 0h15c8.284 0 15 6.716 15 15 0 8.284-6.716 15-15 15H0V0z" fill="#fff"/></mask><g mask="url(#a)"><path fill-rule="evenodd" clip-rule="evenodd" d="M15.15 0c8.284 0 15 6.716 15 15 0 8.284-6.716 15-15 15V0z" fill="#fff"/></g><path fill-rule="evenodd" clip-rule="evenodd" d="M0 15L15 0c3.76 0 7.197 1.384 9.83 3.67C24.83 3.675 13.5 15 13.5 15s11.33 11.325 11.33 11.33A14.942 14.942 0 0 1 15 30L0 15z" fill="url(#paint1_linear)"/><path fill-rule="evenodd" clip-rule="evenodd" d="M11.33 0a14.965 14.965 0 0 1 5.17 11.33c0 4.524-2.003 8.58-5.17 11.33C11.33 22.656 0 11.33 0 11.33L11.33 0z" transform="translate(13.5 3.67)" fill="url(#paint2_linear)"/><defs><linearGradient id="paint0_linear" x2="1" gradientUnits="userSpaceOnUse" gradientTransform="rotate(44.718) scale(43.0633)"><stop stop-color="#5334F5"/><stop offset="1" stop-color="#7B42F6"/></linearGradient><linearGradient id="paint1_linear" x2="1" gradientUnits="userSpaceOnUse" gradientTransform="matrix(30.0674 0 0 36.3279 0 15)"><stop stop-color="#4899F7"/><stop offset="1" stop-color="#2457F5"/></linearGradient><linearGradient id="paint2_linear" x2="1" gradientUnits="userSpaceOnUse" gradientTransform="scale(21.6163 29.6874) rotate(35.567)"><stop stop-color="#9DE1E5"/><stop offset="1" stop-color="#B8DFB2"/></linearGradient></defs></svg>